<?xml version="1.0" standalone="no"?>
<!DOCTYPE svg PUBLIC "-//W3C//DTD SVG 20010904//EN"
 "http://www.w3.org/TR/2001/REC-SVG-20010904/DTD/svg10.dtd">
<svg version="1.0" xmlns="http://www.w3.org/2000/svg"
 width="200.000000pt" height="200.000000pt" viewBox="0 0 200.000000 200.000000"
 preserveAspectRatio="xMidYMid meet">

<g transform="translate(0.000000,200.000000) scale(0.100000,-0.100000)"
fill="#BFEFFF" stroke="none">
<path d="M1443 1371 c-76 -112 -143 -173 -287 -264 -145 -92 -218 -153 -246
-206 -13 -25 -20 -32 -24 -21 -51 135 -156 451 -156 472 0 31 6 37 49 40 24 2
31 7 31 23 0 19 -6 20 -155 20 -150 0 -156 -1 -153 -20 2 -12 12 -21 24 -23
12 -2 31 -13 43 -26 12 -12 85 -193 167 -412 80 -214 148 -392 153 -397 4 -4
22 13 40 38 43 60 85 90 205 148 107 51 139 75 163 120 19 37 12 42 -25 23
-35 -18 -112 -37 -112 -27 0 3 32 19 70 35 124 51 170 97 198 198 l10 37 -50
-39 c-49 -39 -175 -106 -184 -97 -2 2 22 20 54 40 75 46 142 118 174 187 22
48 72 220 65 226 -1 1 -25 -33 -54 -75z m-566 -653 c-2 -18 -4 -4 -4 32 0 36
2 50 4 33 2 -18 2 -48 0 -65z m10 -115 c-3 -10 -5 -2 -5 17 0 19 2 27 5 18 2
-10 2 -26 0 -35z"/>
</g>
</svg>
